<svg width="467" height="419" viewBox="0 0 467 419" fill="none" xmlns="http://www.w3.org/2000/svg">
<g opacity="0.5">
<path fill-rule="evenodd" clip-rule="evenodd" d="M263.399 70.6083C338.176 71.9838 427.369 67.924 455.034 137.409C486.691 216.918 445.857 305.217 377.091 356.159C306.13 408.728 210.719 422.381 137.998 372.275C59.629 318.277 12.2313 217.815 48.7624 129.935C80.263 54.1571 181.348 69.0989 263.399 70.6083Z" fill="url(#paint0_linear_421_40143)"/>
<path fill-rule="evenodd" clip-rule="evenodd" d="M169.515 272.071C147.477 312.446 175.025 381.207 132.119 397.789C89.663 414.197 47.1922 366.995 22.0109 329.078C2.39565 299.543 18.2664 263.451 19.3666 228.013C20.6508 186.645 1.76656 141.714 28.8005 110.375C64.683 68.7786 121.332 31.5966 173.206 49.6769C224.771 67.6498 248.317 131.97 247.411 186.57C246.738 227.128 188.95 236.467 169.515 272.071Z" fill="url(#paint1_linear_421_40143)"/>
</g>
<defs>
<linearGradient id="paint0_linear_421_40143" x1="251.073" y1="68.4336" x2="357.044" y2="236.062" gradientUnits="userSpaceOnUse">
<stop stop-color="#B700F8"/>
<stop offset="1" stop-color="#ECB7FF"/>
</linearGradient>
<linearGradient id="paint1_linear_421_40143" x1="257" y1="110.945" x2="20.7818" y2="179.719" gradientUnits="userSpaceOnUse">
<stop stop-color="#8FFFD7"/>
<stop offset="1" stop-color="#61FF67"/>
</linearGradient>
</defs>
</svg>
