<svg width="20" height="20" viewBox="0 0 20 20" fill="none" xmlns="http://www.w3.org/2000/svg">
<g id="Social_icon/LinkedIn">
<path id="Subtract" fill-rule="evenodd" clip-rule="evenodd" d="M1.47796 0C0.661687 0 0 0.641644 0 1.43268V18.5673C0 19.3586 0.661687 20 1.47796 20H18.522C19.3383 20 20 19.3586 20 18.5673V1.43268C20 0.641644 19.3383 0 18.522 0H1.47796ZM6.06235 7.71136V16.7425H3.04153V7.71136H6.06235ZM6.26102 4.91816C6.26102 5.78482 5.60535 6.47831 4.55193 6.47831H4.53224C3.51848 6.47831 2.86296 5.78482 2.86296 4.91816C2.86296 4.03199 3.53858 3.35775 4.57191 3.35775C5.60535 3.35775 6.24138 4.03199 6.26102 4.91816ZM10.7547 16.7425H7.73396C7.73396 16.7425 7.77368 8.55878 7.73404 7.71136H10.7548V8.99L10.7347 9.0211H10.7548V8.99C11.1563 8.37461 11.8748 7.49944 13.4772 7.49944C15.4647 7.49944 16.955 8.79021 16.955 11.5642V16.7425H13.9344V11.911C13.9344 10.697 13.4972 9.86879 12.4041 9.86879C11.5696 9.86879 11.0725 10.4273 10.8541 10.9666C10.7744 11.1596 10.7547 11.4292 10.7547 11.6991V16.7425Z" fill="#B2B5BD"/>
</g>
</svg>
