<svg width="20" height="20" viewBox="0 0 20 20" fill="none" xmlns="http://www.w3.org/2000/svg">
<g id="Social_icon/Twitter">
<path id="Vector" d="M17.8996 5.95108C17.9117 6.12608 17.9117 6.30108 17.9117 6.47769C17.9117 11.8591 13.8149 18.0656 6.3238 18.0656V18.0624C4.11089 18.0656 1.94396 17.4317 0.0810547 16.2366C0.402829 16.2753 0.726216 16.2946 1.05041 16.2954C2.88428 16.297 4.66573 15.6817 6.10847 14.5487C4.36573 14.5156 2.83751 13.3793 2.30364 11.7204C2.91412 11.8382 3.54315 11.814 4.14234 11.6503C2.24235 11.2664 0.87541 9.59705 0.87541 7.65834V7.60673C1.44154 7.92205 2.07541 8.09705 2.7238 8.1164C0.93428 6.92043 0.382668 4.53979 1.46331 2.6785C3.53105 5.22285 6.58186 6.76963 9.85686 6.93334C9.52864 5.51882 9.97702 4.03656 11.0351 3.04221C12.6754 1.50027 15.2552 1.57931 16.7972 3.21882C17.7093 3.03898 18.5835 2.70431 19.3835 2.23011C19.0794 3.17286 18.4431 3.97366 17.5932 4.48253C18.4004 4.38737 19.1891 4.17124 19.9319 3.8414C19.3851 4.66076 18.6964 5.37447 17.8996 5.95108Z" fill="#B2B5BD"/>
</g>
</svg>
