<svg width="21" height="20" viewBox="0 0 21 20" fill="none" xmlns="http://www.w3.org/2000/svg">
<path d="M15.1608 9.26961C15.0746 9.22832 14.9871 9.18858 14.8985 9.15053C14.7441 6.30606 13.1898 4.6776 10.58 4.66094C10.5682 4.66086 10.5564 4.66086 10.5446 4.66086C8.98361 4.66086 7.68535 5.32718 6.88628 6.53966L8.32159 7.52425C8.91853 6.61857 9.85536 6.4255 10.5453 6.4255C10.5533 6.4255 10.5613 6.4255 10.5692 6.42557C11.4285 6.43105 12.0769 6.6809 12.4966 7.16813C12.802 7.52284 13.0063 8.01302 13.1074 8.63165C12.3455 8.50216 11.5216 8.46234 10.6408 8.51284C8.15947 8.65577 6.56431 10.1029 6.67144 12.1137C6.72581 13.1337 7.23395 14.0112 8.10221 14.5845C8.83632 15.0691 9.7818 15.306 10.7644 15.2524C12.0621 15.1812 13.0801 14.6861 13.7903 13.7808C14.3297 13.0933 14.6709 12.2024 14.8215 11.0798C15.4399 11.453 15.8983 11.9442 16.1514 12.5346C16.5818 13.5382 16.6069 15.1875 15.2612 16.5321C14.0821 17.71 12.6648 18.2196 10.5229 18.2353C8.14692 18.2177 6.35001 17.4557 5.1817 15.9705C4.08768 14.5798 3.52229 12.571 3.50119 10C3.52229 7.42894 4.08768 5.42017 5.1817 4.02945C6.35001 2.54426 8.14689 1.78229 10.5229 1.76464C12.9161 1.78243 14.7443 2.54806 15.9573 4.04042C16.5521 4.77225 17.0005 5.69258 17.2962 6.76566L18.9782 6.3169C18.6198 4.99606 18.056 3.85789 17.2887 2.91396C15.7336 1.0007 13.4592 0.0203279 10.5287 0H10.517C7.59249 0.0202573 5.34358 1.00435 3.83277 2.92493C2.48835 4.634 1.79486 7.01205 1.77156 9.99297L1.77148 10L1.77156 10.007C1.79486 12.9879 2.48835 15.366 3.83277 17.0751C5.34358 18.9956 7.59249 19.9798 10.517 20H10.5287C13.1288 19.982 14.9615 19.3013 16.4713 17.7928C18.4466 15.8194 18.3871 13.3457 17.7361 11.8272C17.269 10.7382 16.3785 9.85377 15.1608 9.26961ZM10.6715 13.4903C9.58404 13.5516 8.45424 13.0634 8.39853 12.0179C8.35723 11.2427 8.95021 10.3777 10.7383 10.2747C10.943 10.2629 11.144 10.2571 11.3414 10.2571C11.9909 10.2571 12.5985 10.3202 13.1509 10.4409C12.9448 13.0141 11.7363 13.4319 10.6715 13.4903Z" fill="#B2B5BD"/>
</svg>
