<svg xmlns="http://www.w3.org/2000/svg" style="display: none;">
  
    <symbol id="icon-book" viewBox="0 0 512 512">
      <path d="m384 288l-64 0c-17 0-32 16-32 32l128 0c0-17-16-32-32-32z m-27-208c-84 0-105 16-117 28-12-12-33-28-116-28-84 0-124 23-124 39l0 293c15-8 60-24 107-28 58-4 117 5 117 16 0 8 4 16 16 16 0 0 0 0 0 0 0 0 0 0 1 0 11 0 15-8 15-16 0-11 60-20 117-16 47 4 93 20 107 28l0-293c0-16-40-39-123-39z m-133 286c-15-8-51-14-96-14-44 0-85 6-96 14 0 0 0-206 0-222 0-16 32-29 96-29 64 0 96 13 96 29 0 16 0 222 0 222z m224 0c-11-8-51-14-96-14-44 0-81 6-96 14 0 0 0-206 0-222 0-16 32-29 96-29 64 0 96 13 96 29 0 16 0 222 0 222z m-64-142l-64 0c-17 0-32 16-32 32l128 0c0-17-16-32-32-32z m0-64l-64 0c-17 0-32 16-32 32l128 0c0-17-16-32-32-32z m-224 64l-64 0c-16 0-32 15-32 32l128 0c0-16-15-32-32-32z m0 64l-64 0c-16 0-32 15-32 32l128 0c0-16-15-32-32-32z m0-128l-64 0c-16 0-32 15-32 32l128 0c0-16-15-32-32-32z"/>
    </symbol>
  
</svg>
